<?xml version="1.0" encoding="utf-8"?>
<!-- Generator: Adobe Illustrator 22.1.0, SVG Export Plug-In . SVG Version: 6.00 Build 0)  -->
<svg version="1.1" id="Layer_1" xmlns="http://www.w3.org/2000/svg" xmlns:xlink="http://www.w3.org/1999/xlink" x="0px" y="0px"
	 viewBox="0 0 198.1 105.4" style="enable-background:new 0 0 198.1 105.4;" xml:space="preserve">
<style type="text/css">
	.st0{fill:#F4EB28;}
	.st1{fill:#363435;}
	.st2{fill:#4B4A4B;}
	.st3{fill:#383432;}
	.st4{fill:#F4EB23;}
	.st5{fill:#FFFFFF;}
	.st6{fill:none;stroke:#FFFFFF;stroke-width:2.708900e-02;stroke-miterlimit:10;}
	.st7{fill:#35333D;}
	.st8{fill:#F4EB2A;}
	.st9{fill:#36343A;}
</style>
<g>
	<g>
	</g>
</g>
<g>
	<g>
	</g>
</g>
<g>
	<g>
	</g>
</g>
<g>
	<g>
	</g>
</g>
<g>
	<g>
	</g>
</g>
<g>
	<g>
	</g>
</g>
<g>
	<g>
	</g>
</g>
<g>
	<g>
	</g>
</g>
<g>
	<g>
	</g>
</g>
<g>
	<g>
	</g>
</g>
<g>
	<g>
	</g>
</g>
<g>
	<g>
	</g>
</g>
<g>
	<g>
	</g>
</g>
<g>
	<g>
	</g>
</g>
<g>
	<g>
	</g>
</g>
<g>
	<g>
	</g>
</g>
<g>
	<g>
	</g>
</g>
<g>
	<g>
	</g>
</g>
<g>
	<g>
	</g>
</g>
<g>
	<g>
	</g>
</g>
<g>
	<g>
	</g>
</g>
<g>
	<g>
	</g>
</g>
<g>
	<g>
	</g>
</g>
<g>
	<rect x="0" y="0.3" class="st0" width="198.1" height="105"/>
	<g>
		<polygon class="st1" points="35.6,69 36.5,80.6 128.3,12.7 43.7,61.7 		"/>
		<polygon class="st2" points="34.9,69.8 62.1,53 85.9,38.7 128.7,12.4 80.3,38.9 62.1,48.9 41.4,60 		"/>
		<polygon class="st2" points="36.5,80.6 36.5,67.6 32.1,43.4 28.8,27.5 33.8,63 		"/>
		<polygon class="st3" points="57.3,77.2 72.6,56.7 79.4,56.8 83.2,76.7 88.9,56.7 95.8,56.8 99.3,66.8 108.2,56.7 115.7,56.8 
			110.2,77.3 104.9,77.2 109.8,60.5 100.3,71 96.4,71 93,60.5 88.3,77.3 77.6,77.2 76.8,72.6 67.1,72.6 63.8,77.3 		"/>
		<polygon class="st4" points="69,69.3 76.3,69.3 75.3,60.4 		"/>
		<polygon class="st1" points="28.8,27.5 43,59.1 36.6,68.8 		"/>
		<g>
			<path class="st5" d="M17.8,90.6c-3,0.7-3,1-3,1c-0.5,0.5,2.3,0.7,4.2,0.6c1.8,0,16.6-0.3,16.6-0.3c4.5,0,26.5-1,26.5-1
				c4.1-0.2,19.4-1,19.4-1c2.4-0.1,28.8-2.3,28.8-2.3c8.6-0.5,27.8-4.1,27.8-4.1c5.7-1,17.9-4.8,17.9-4.8c6.3-2.1,13.6-7.4,13.6-7.4
				l5-4.7c5-4.7,8.8-12,8.8-12s1.8-3.4,1.8-4.1c0.1-0.7-1,0.3-1.2,0.4c-0.2,0.2-1.2,1.1-1.7,1.5c-0.5,0.4-0.1-0.8-0.1-0.8
				c0-0.1,2.1-4,2.3-4.6c0.2-0.6-0.5-0.3-0.8-0.2c-0.3,0.2-4.8,4-4.8,4c-2,1.8-12.2,9.5-12.2,9.5c-4.5,3.5-17.8,9.8-17.8,9.8
				c-1.9,0.9-15.5,5.8-15.5,5.8c-6.5,2.5-22.1,5.1-22.1,5.1c-1.5,0.2-21.4,2.8-21.4,2.8C89,84,68.2,85.8,68.2,85.8L46,87.3
				c-1.3,0.1-19.5,1-19.5,1c-2.8,0.1-11.3,1-12.3,1.1c-0.9,0.1-1.7,0.4-1,0.8C13.9,90.5,17.9,90.6,17.8,90.6"/>
			<path class="st6" d="M17.8,90.6c-3,0.7-3,1-3,1c-0.5,0.5,2.3,0.7,4.2,0.6c1.8,0,16.6-0.3,16.6-0.3c4.5,0,26.5-1,26.5-1
				c4.1-0.2,19.4-1,19.4-1c2.4-0.1,28.8-2.3,28.8-2.3c8.6-0.5,27.8-4.1,27.8-4.1c5.7-1,17.9-4.8,17.9-4.8c6.3-2.1,13.6-7.4,13.6-7.4
				l5-4.7c5-4.7,8.8-12,8.8-12s1.8-3.4,1.8-4.1c0.1-0.7-1,0.3-1.2,0.4c-0.2,0.2-1.2,1.1-1.7,1.5c-0.5,0.4-0.1-0.8-0.1-0.8
				c0-0.1,2.1-4,2.3-4.6c0.2-0.6-0.5-0.3-0.8-0.2c-0.3,0.2-4.8,4-4.8,4c-2,1.8-12.2,9.5-12.2,9.5c-4.5,3.5-17.8,9.8-17.8,9.8
				c-1.9,0.9-15.5,5.8-15.5,5.8c-6.5,2.5-22.1,5.1-22.1,5.1c-1.5,0.2-21.4,2.8-21.4,2.8C89,84,68.2,85.8,68.2,85.8L46,87.3
				c-1.3,0.1-19.5,1-19.5,1c-2.8,0.1-11.3,1-12.3,1.1c-0.9,0.1-1.7,0.4-1,0.8C13.9,90.5,17.9,90.6,17.8,90.6"/>
			<path class="st7" d="M113.9,68.5c0,0-0.9-7.7,8-11.4c0,0,5.6-2.2,12.3-0.4c0,0,6.8,2.3,5.9,8.9c0,0-0.3,6.5-6.8,9.9
				C133.2,75.5,116.2,82.2,113.9,68.5"/>
			<path class="st8" d="M120.2,67.2c0,0,0.4-5.2,5.3-7.1c0,0,3.7-1.2,6.9,0.9c0,0,2.8,2.5,0.7,7.6c0,0-2.2,5-7.6,4.7
				C125.5,73.3,120,73.1,120.2,67.2"/>
			<path class="st7" d="M119.3,75.9c0,0,4.1,2.2,9.8,0.8c0,0,2.6-0.4,3.7-1.1c1-0.7,1.7-1.1,1.7-1.1L119.3,75.9z"/>
			<path class="st7" d="M149.2,72.7c0.5-0.2,1-0.5,1.5-0.7"/>
			<path class="st7" d="M149.1,72.8c-0.2,0.2-0.2,0.2-0.5,0.5c0.2-0.2,0,0,0,0C148.8,73.1,148.9,72.9,149.1,72.8"/>
			<path class="st9" d="M149.3,59.6c0,0,3.1-0.6,7.6,1.3l1.1-3.6c0,0-3-1.1-6-1.3c0,0-4.7-0.3-7.6,1.1c0,0-4,2.1-3.8,5.3
				c0,0,0.2,3.9,5,5.7c0,0,0.8,0.3,1.7,0.7c0.1,0,0.3,0.1,0.4,0.2c0,0,0,0,0.1,0c0,0,0,0,0.1,0c0.2,0.1,0.3,0.1,0.5,0.2
				c0.2,0.1,0.4,0.2,0.6,0.4c0.1,0.1,0.2,0.1,0.2,0.2c0,0,0,0,0.1,0.1c0.1,0.1,0.2,0.2,0.3,0.3c0.1,0.1,0.1,0.2,0.2,0.3
				c0,0,0,0.1,0,0.1c0.1,0.2,0.1,0.4,0.1,0.6v0c0,0,0,0,0,0c0,0.1,0,0.2,0,0.2c0,0.3-0.1,0.6-0.3,0.8c-0.2,0.4-0.6,0.7-1.4,0.9
				c0,0-4.7,1.4-9.2-1.4l-1,4c0,0,4.3,1.7,8.7,1.4c4.4-0.3,8.3-1.8,8.8-4.5c0,0,1.7-3.7-2.3-6.2c0,0-5.8-2.5-6.2-4
				C146.9,62.5,146.2,60.1,149.3,59.6"/>
			<path class="st5" d="M62.7,39.3c0,6.2-5.1,11.3-11.5,11.3c-6.3,0-11.5-5-11.5-11.3c0-6.2,5.1-11.2,11.5-11.2
				C57.6,28.1,62.7,33.1,62.7,39.3"/>
		</g>
	</g>
</g>
</svg>
